<?xml version="1.0" standalone="no"?>
<!DOCTYPE svg PUBLIC "-//W3C//DTD SVG 20010904//EN"
 "http://www.w3.org/TR/2001/REC-SVG-20010904/DTD/svg10.dtd">
<svg version="1.0" xmlns="http://www.w3.org/2000/svg"
 width="500.000000pt" height="500.000000pt" viewBox="0 0 500.000000 500.000000"
 preserveAspectRatio="xMidYMid meet">
<metadata>
Created by potrace 1.11, written by Peter Selinger 2001-2013
</metadata>
<g transform="translate(0.000000,500.000000) scale(0.100000,-0.100000)"
fill="#000000" stroke="none">
<path d="M2425 4993 c-90 -20 -100 -31 -1244 -1174 -1257 -1257 -1176 -1167
-1176 -1318 0 -154 -83 -60 1176 -1320 1260 -1259 1167 -1176 1319 -1176 154
1 61 -82 1310 1168 612 611 1123 1128 1136 1147 35 53 53 123 50 200 -5 134
60 63 -1177 1299 -1240 1241 -1164 1172 -1302 1176 -40 1 -81 0 -92 -2z"/>
</g>
</svg>
